<svg width="137" height="24" viewBox="0 0 137 24" fill="none" xmlns="http://www.w3.org/2000/svg">
<g clip-path="url(#clip0_206_53)">
<path d="M12.6699 17.27L18.8499 21L17.2099 13.97L22.6699 9.24L15.4799 8.63L12.6699 2L9.85992 8.63L2.66992 9.24L8.12992 13.97L6.48992 21L12.6699 17.27Z" fill="#F8A401"/>
</g>
<g clip-path="url(#clip1_206_53)">
<path d="M40.6699 17.27L46.8499 21L45.2099 13.97L50.6699 9.24L43.4799 8.63L40.6699 2L37.8599 8.63L30.6699 9.24L36.1299 13.97L34.4899 21L40.6699 17.27Z" fill="#F8A401"/>
</g>
<g clip-path="url(#clip2_206_53)">
<path d="M68.6699 17.27L74.8499 21L73.2099 13.97L78.6699 9.24L71.4799 8.63L68.6699 2L65.8599 8.63L58.6699 9.24L64.1299 13.97L62.4899 21L68.6699 17.27Z" fill="#F8A401"/>
</g>
<g clip-path="url(#clip3_206_53)">
<path d="M106.67 9.24L99.4799 8.62L96.6699 2L93.8599 8.63L86.6699 9.24L92.1299 13.97L90.4899 21L96.6699 17.27L102.85 21L101.22 13.97L106.67 9.24ZM96.6699 15.4V6.1L98.3799 10.14L102.76 10.52L99.4399 13.4L100.44 17.68L96.6699 15.4Z" fill="#F8A401"/>
</g>
<g clip-path="url(#clip4_206_53)">
<path d="M134.67 9.24L127.48 8.62L124.67 2L121.86 8.63L114.67 9.24L120.13 13.97L118.49 21L124.67 17.27L130.85 21L129.22 13.97L134.67 9.24ZM124.67 15.4L120.91 17.67L121.91 13.39L118.59 10.51L122.97 10.13L124.67 6.1L126.38 10.14L130.76 10.52L127.44 13.4L128.44 17.68L124.67 15.4Z" fill="#F8A401"/>
</g>
<defs>
<clipPath id="clip0_206_53">
<rect width="24" height="24" fill="white" transform="translate(0.669922)"/>
</clipPath>
<clipPath id="clip1_206_53">
<rect width="24" height="24" fill="white" transform="translate(28.6699)"/>
</clipPath>
<clipPath id="clip2_206_53">
<rect width="24" height="24" fill="white" transform="translate(56.6699)"/>
</clipPath>
<clipPath id="clip3_206_53">
<rect width="24" height="24" fill="white" transform="translate(84.6699)"/>
</clipPath>
<clipPath id="clip4_206_53">
<rect width="24" height="24" fill="white" transform="translate(112.67)"/>
</clipPath>
</defs>
</svg>
